<svg width="300" height="181" viewBox="0 0 300 181" fill="none" xmlns="http://www.w3.org/2000/svg">
<path d="M11.9558 52V10H30.0758C32.7158 10 35.0558 10.6 37.0958 11.8C39.1758 13 40.8158 14.64 42.0158 16.72C43.2558 18.8 43.8758 21.14 43.8758 23.74C43.8758 26.46 43.2558 28.9 42.0158 31.06C40.8158 33.18 39.1758 34.86 37.0958 36.1C35.0558 37.34 32.7158 37.96 30.0758 37.96H22.1558V52H11.9558ZM21.9758 29.02H28.6358C29.5158 29.02 30.3158 28.8 31.0358 28.36C31.7558 27.92 32.3358 27.32 32.7758 26.56C33.2158 25.8 33.4358 24.92 33.4358 23.92C33.4358 22.88 33.2158 22 32.7758 21.28C32.3358 20.56 31.7558 20 31.0358 19.6C30.3158 19.2 29.5158 19 28.6358 19H21.9758V29.02ZM42.4166 52L59.0366 10H67.6766L84.1766 52H73.8566L65.9366 30.7C65.6166 29.86 65.2966 28.96 64.9766 28C64.6566 27.04 64.3366 26.06 64.0166 25.06C63.6966 24.02 63.3766 23.02 63.0566 22.06C62.7766 21.06 62.5366 20.14 62.3366 19.3L64.1366 19.24C63.8966 20.24 63.6166 21.22 63.2966 22.18C63.0166 23.14 62.7166 24.1 62.3966 25.06C62.1166 25.98 61.7966 26.92 61.4366 27.88C61.0766 28.8 60.7366 29.76 60.4166 30.76L52.4966 52H42.4166ZM50.3366 43.96L53.5166 36.28H72.8366L75.9566 43.96H50.3366ZM89.4167 52V10H98.5367L120.557 40L118.577 39.7C118.377 38.38 118.217 37.12 118.097 35.92C117.977 34.72 117.857 33.54 117.737 32.38C117.657 31.22 117.577 30.04 117.497 28.84C117.457 27.64 117.417 26.34 117.377 24.94C117.377 23.54 117.377 22.02 117.377 20.38V10H127.277V52H118.037L95.0567 21.04L98.1167 21.46C98.3167 23.38 98.4767 25.02 98.5967 26.38C98.7567 27.7 98.8767 28.88 98.9567 29.92C99.0767 30.96 99.1567 31.9 99.1967 32.74C99.2367 33.58 99.2567 34.42 99.2567 35.26C99.2967 36.06 99.3167 36.96 99.3167 37.96V52H89.4167ZM146.935 52V19H134.455V10H169.915V19H157.135V52H146.935ZM177.132 52V10H196.032C198.712 10 201.132 10.58 203.292 11.74C205.492 12.9 207.212 14.5 208.452 16.54C209.692 18.54 210.312 20.82 210.312 23.38C210.312 26.02 209.692 28.4 208.452 30.52C207.212 32.6 205.512 34.24 203.352 35.44C201.192 36.64 198.752 37.24 196.032 37.24H186.852V52H177.132ZM200.412 52L189.732 33.04L200.172 31.54L212.052 52H200.412ZM186.852 29.44H195.132C196.172 29.44 197.072 29.22 197.832 28.78C198.632 28.3 199.232 27.64 199.632 26.8C200.072 25.96 200.292 25 200.292 23.92C200.292 22.84 200.052 21.9 199.572 21.1C199.092 20.26 198.392 19.62 197.472 19.18C196.592 18.74 195.512 18.52 194.232 18.52H186.852V29.44ZM219.26 52V10H248.54V18.7H229.16V43.3H249.14V52H219.26ZM224.06 34.78V26.5H245.84V34.78H224.06ZM257.932 52V10H287.212V18.7H267.832V43.3H287.812V52H257.932ZM262.732 34.78V26.5H284.512V34.78H262.732Z" fill="#4B39EF"/>
<path d="M12.2731 176V65.4H59.9891C66.9411 65.4 73.1031 66.98 78.4751 70.14C83.9525 73.3 88.2711 77.6187 91.4311 83.096C94.6965 88.5733 96.3291 94.7353 96.3291 101.582C96.3291 108.745 94.6965 115.17 91.4311 120.858C88.2711 126.441 83.9525 130.865 78.4751 134.13C73.1031 137.395 66.9411 139.028 59.9891 139.028H39.1331V176H12.2731ZM38.6591 115.486H56.1971C58.5145 115.486 60.6211 114.907 62.5171 113.748C64.4131 112.589 65.9405 111.009 67.0991 109.008C68.2578 107.007 68.8371 104.689 68.8371 102.056C68.8371 99.3173 68.2578 97 67.0991 95.104C65.9405 93.208 64.4131 91.7333 62.5171 90.68C60.6211 89.6267 58.5145 89.1 56.1971 89.1H38.6591V115.486ZM92.4865 176L136.253 65.4H159.005L202.455 176H175.279L154.423 119.91C153.58 117.698 152.737 115.328 151.895 112.8C151.052 110.272 150.209 107.691 149.367 105.058C148.524 102.319 147.681 99.686 146.839 97.158C146.101 94.5247 145.469 92.102 144.943 89.89L149.683 89.732C149.051 92.3653 148.313 94.946 147.471 97.474C146.733 100.002 145.943 102.53 145.101 105.058C144.363 107.481 143.521 109.956 142.573 112.484C141.625 114.907 140.729 117.435 139.887 120.068L119.031 176H92.4865ZM113.343 154.828L121.717 134.604H172.593L180.809 154.828H113.343ZM216.254 176V65.4H243.114V152.3H292.41V176H216.254Z" fill="#4B39EF"/>
</svg>
