<svg width="301" height="270" viewBox="0 0 301 270" fill="none" xmlns="http://www.w3.org/2000/svg">
<rect x="17" y="135" width="190" height="190" rx="8" transform="rotate(-45 17 135)" fill="black" fill-opacity="0.05"/>
<path d="M103.64 208V163.2H122.968C125.784 163.2 128.28 163.84 130.456 165.12C132.674 166.4 134.424 168.149 135.704 170.368C137.026 172.587 137.688 175.083 137.688 177.856C137.688 180.757 137.026 183.36 135.704 185.664C134.424 187.925 132.674 189.717 130.456 191.04C128.28 192.363 125.784 193.024 122.968 193.024H114.52V208H103.64ZM114.328 183.488H121.432C122.37 183.488 123.224 183.253 123.992 182.784C124.76 182.315 125.378 181.675 125.848 180.864C126.317 180.053 126.552 179.115 126.552 178.048C126.552 176.939 126.317 176 125.848 175.232C125.378 174.464 124.76 173.867 123.992 173.44C123.224 173.013 122.37 172.8 121.432 172.8H114.328V183.488ZM127.811 208L145.539 163.2H154.755L172.355 208H161.347L152.899 185.28C152.558 184.384 152.216 183.424 151.875 182.4C151.534 181.376 151.192 180.331 150.851 179.264C150.51 178.155 150.168 177.088 149.827 176.064C149.528 174.997 149.272 174.016 149.059 173.12L150.979 173.056C150.723 174.123 150.424 175.168 150.083 176.192C149.784 177.216 149.464 178.24 149.123 179.264C148.824 180.245 148.483 181.248 148.099 182.272C147.715 183.253 147.352 184.277 147.011 185.344L138.563 208H127.811ZM136.259 199.424L139.651 191.232H160.259L163.587 199.424H136.259ZM169.625 208V163.2H180.505V198.4H200.473V208H169.625Z" fill="#4B39EF"/>
<path d="M110.136 110V65.2H119.864L136.184 91.76L129.208 91.696L145.72 65.2H155.064V110H144.504V96.048C144.504 92.208 144.589 88.752 144.76 85.68C144.973 82.608 145.314 79.5573 145.784 76.528L147 79.856L134.584 99.12H130.36L118.2 79.984L119.416 76.528C119.885 79.3867 120.205 82.3307 120.376 85.36C120.589 88.3467 120.696 91.9093 120.696 96.048V110H110.136ZM169.587 110V87.664L170.035 90.8L151.923 65.2H164.275L178.099 85.04L172.467 84.848L184.947 65.2H196.915L179.571 91.504L180.531 87.152V110H169.587Z" fill="#4B39EF"/>
<path d="M45.9008 159V114.2H65.2288C68.0448 114.2 70.5408 114.84 72.7168 116.12C74.9354 117.4 76.6848 119.149 77.9648 121.368C79.2874 123.587 79.9488 126.083 79.9488 128.856C79.9488 131.757 79.2874 134.36 77.9648 136.664C76.6848 138.925 74.9354 140.717 72.7168 142.04C70.5408 143.363 68.0448 144.024 65.2288 144.024H56.7808V159H45.9008ZM56.5888 134.488H63.6928C64.6314 134.488 65.4848 134.253 66.2528 133.784C67.0208 133.315 67.6394 132.675 68.1088 131.864C68.5781 131.053 68.8128 130.115 68.8128 129.048C68.8128 127.939 68.5781 127 68.1088 126.232C67.6394 125.464 67.0208 124.867 66.2528 124.44C65.4848 124.013 64.6314 123.8 63.6928 123.8H56.5888V134.488ZM70.0723 159L87.8003 114.2H97.0163L114.616 159H103.608L95.1603 136.28C94.8189 135.384 94.4776 134.424 94.1363 133.4C93.7949 132.376 93.4536 131.331 93.1123 130.264C92.7709 129.155 92.4296 128.088 92.0883 127.064C91.7896 125.997 91.5336 125.016 91.3203 124.12L93.2403 124.056C92.9843 125.123 92.6856 126.168 92.3443 127.192C92.0456 128.216 91.7256 129.24 91.3843 130.264C91.0856 131.245 90.7443 132.248 90.3603 133.272C89.9763 134.253 89.6136 135.277 89.2723 136.344L80.8243 159H70.0723ZM78.5203 150.424L81.9123 142.232H102.52L105.848 150.424H78.5203ZM111.886 159V114.2H121.614L145.102 146.2L142.99 145.88C142.776 144.472 142.606 143.128 142.478 141.848C142.35 140.568 142.222 139.309 142.094 138.072C142.008 136.835 141.923 135.576 141.838 134.296C141.795 133.016 141.752 131.629 141.71 130.136C141.71 128.643 141.71 127.021 141.71 125.272V114.2H152.27V159H142.414L117.902 125.976L121.166 126.424C121.379 128.472 121.55 130.221 121.678 131.672C121.848 133.08 121.976 134.339 122.062 135.448C122.19 136.557 122.275 137.56 122.318 138.456C122.36 139.352 122.382 140.248 122.382 141.144C122.424 141.997 122.446 142.957 122.446 144.024V159H111.886ZM164.919 159V123.8H151.607V114.2H189.431V123.8H175.799V159H164.919ZM188.808 159V114.2H208.968C211.827 114.2 214.408 114.819 216.712 116.056C219.059 117.293 220.894 119 222.216 121.176C223.539 123.309 224.2 125.741 224.2 128.472C224.2 131.288 223.539 133.827 222.216 136.088C220.894 138.307 219.08 140.056 216.776 141.336C214.472 142.616 211.87 143.256 208.968 143.256H199.176V159H188.808ZM213.64 159L202.248 138.776L213.384 137.176L226.056 159H213.64ZM199.176 134.936H208.008C209.118 134.936 210.078 134.701 210.888 134.232C211.742 133.72 212.382 133.016 212.808 132.12C213.278 131.224 213.512 130.2 213.512 129.048C213.512 127.896 213.256 126.893 212.744 126.04C212.232 125.144 211.486 124.461 210.504 123.992C209.566 123.523 208.414 123.288 207.048 123.288H199.176V134.936ZM233.822 159V136.664L234.27 139.8L216.158 114.2H228.51L242.334 134.04L236.702 133.848L249.182 114.2H261.15L243.806 140.504L244.766 136.152V159H233.822Z" fill="#4B39EF"/>
</svg>
